<svg width="130" height="130" viewBox="0 0 130 130" fill="none" xmlns="http://www.w3.org/2000/svg">
<g clip-path="url(#clip0_4_49)">
<path d="M21.6667 124.204C15.9203 124.204 10.4093 121.922 6.34602 117.858C2.28273 113.795 0 108.284 0 102.538C0 96.7912 2.28273 91.2802 6.34602 87.2169C10.4093 83.1537 15.9203 80.8709 21.6667 80.8709C27.413 80.8709 32.924 83.1537 36.9873 87.2169C41.0506 91.2802 43.3333 96.7912 43.3333 102.538C43.3333 108.284 41.0506 113.795 36.9873 117.858C32.924 121.922 27.413 124.204 21.6667 124.204ZM127.097 91.6988L83.7633 16.6401C80.8902 11.6623 76.1572 8.02977 70.6058 6.54159C65.0543 5.05341 59.139 5.8315 54.1613 8.70468C49.1835 11.5779 45.5509 16.3108 44.0628 21.8622C42.5746 27.4137 43.3527 33.329 46.2258 38.3068L89.5646 113.366C92.4701 118.279 97.1968 121.848 102.718 123.297C108.239 124.746 114.109 123.958 119.053 121.104C123.997 118.251 127.615 113.562 129.122 108.056C130.629 102.55 129.898 96.6724 127.097 91.6988ZM40.7008 26.2384L8.47167 82.0518C12.4054 79.5154 16.9862 78.1652 21.6667 78.1626C35.5333 78.1193 46.7188 89.8518 46.0092 103.702L63.4346 73.5151L43.8804 39.6609C41.5395 35.5905 40.4346 30.9264 40.7008 26.2384Z" fill="black"/>
</g>
<defs>
<clipPath id="clip0_4_49">
<rect width="130" height="130" fill="white"/>
</clipPath>
</defs>
</svg>
