<svg width="130" height="130" viewBox="0 0 130 130" fill="none" xmlns="http://www.w3.org/2000/svg">
<path d="M64.6018 0.0836792C47.0695 0.0836792 44.8807 0.164349 37.9969 0.470894C31.1238 0.793574 26.4449 1.87455 22.3308 3.47181C18.0876 5.11748 14.4843 7.32783 10.8972 10.9149C7.31007 14.5021 5.09434 18.0999 3.45405 22.3485C1.85679 26.4627 0.770434 31.1416 0.453133 38.0146C0.130454 44.8984 0.065918 47.0873 0.065918 64.6195C0.065918 82.1518 0.146588 84.3406 0.453133 91.2244C0.775812 98.0921 1.85679 102.776 3.45405 106.891C5.07439 111.197 7.61444 115.099 10.8972 118.324C14.1201 121.609 18.0225 124.15 22.3308 125.767C26.4503 127.359 31.1292 128.451 37.9969 128.768C44.8807 129.091 47.0695 129.155 64.6018 129.155C82.134 129.155 84.3228 129.075 91.2067 128.768C98.0744 128.445 102.759 127.359 106.873 125.767C111.179 124.145 115.08 121.605 118.306 118.324C121.592 115.102 124.133 111.199 125.749 106.891C127.341 102.776 128.433 98.0921 128.75 91.2244C129.073 84.3406 129.138 82.1518 129.138 64.6195C129.138 47.0873 129.057 44.8984 128.75 38.0146C128.428 31.1469 127.341 26.4573 125.749 22.3485C124.128 18.042 121.588 14.1403 118.306 10.9149C115.086 7.62707 111.183 5.08623 106.873 3.47181C102.759 1.87455 98.0744 0.788196 91.2067 0.470894C84.3228 0.148215 82.134 0.0836792 64.6018 0.0836792ZM64.6018 11.7001C81.8275 11.7001 83.8819 11.7862 90.685 12.082C96.9773 12.3778 100.392 13.4211 102.662 14.3138C105.684 15.4809 107.825 16.8791 110.094 19.1325C112.348 21.3913 113.746 23.5371 114.913 26.5595C115.795 28.829 116.849 32.244 117.134 38.5363C117.44 45.3448 117.51 47.3885 117.51 64.6195C117.51 81.8506 117.43 83.8996 117.112 90.7028C116.784 96.995 115.736 100.41 114.848 102.68C113.798 105.48 112.148 108.017 110.013 110.112C107.928 112.249 105.392 113.895 102.592 114.931C100.333 115.813 96.8643 116.867 90.5721 117.152C83.7205 117.458 81.7038 117.528 64.4404 117.528C47.1717 117.528 45.155 117.447 38.3088 117.13C32.0112 116.802 28.5424 115.753 26.2836 114.866C23.4812 113.829 20.9469 112.177 18.8674 110.031C16.7085 107.959 15.0528 105.421 14.0272 102.61C13.1398 100.351 12.0965 96.8821 11.7684 90.5898C11.5264 83.8136 11.4404 81.7215 11.4404 64.5389C11.4404 47.3508 11.5264 45.2534 11.7684 38.3965C12.0965 32.1042 13.1398 28.6408 14.0272 26.382C15.1566 23.3166 16.6032 21.2192 18.8674 18.955C21.1207 16.7017 23.2235 15.2496 26.2836 14.1256C28.5424 13.2329 31.9359 12.1842 38.2281 11.8615C45.0851 11.6195 47.1018 11.5388 64.3598 11.5388L64.6018 11.7001ZM64.6018 31.4804C60.2499 31.4804 55.9406 32.3375 51.92 34.0029C47.8993 35.6683 44.2461 38.1093 41.1688 41.1866C38.0916 44.2639 35.6506 47.9171 33.9852 51.9377C32.3198 55.9583 31.4626 60.2676 31.4626 64.6195C31.4626 68.9714 32.3198 73.2807 33.9852 77.3013C35.6506 81.322 38.0916 84.9752 41.1688 88.0524C44.2461 91.1297 47.8993 93.5707 51.92 95.2361C55.9406 96.9015 60.2499 97.7587 64.6018 97.7587C73.3908 97.7587 81.8199 94.2672 88.0347 88.0524C94.2495 81.8376 97.7409 73.4086 97.7409 64.6195C97.7409 55.8305 94.2495 47.4014 88.0347 41.1866C81.8199 34.9718 73.3908 31.4804 64.6018 31.4804ZM64.6018 86.1315C52.7164 86.1315 43.0898 76.5049 43.0898 64.6195C43.0898 52.7342 52.7164 43.1076 64.6018 43.1076C76.4871 43.1076 86.1137 52.7342 86.1137 64.6195C86.1137 76.5049 76.4871 86.1315 64.6018 86.1315ZM106.797 30.1735C106.723 32.1775 105.874 34.0745 104.43 35.4658C102.986 36.8572 101.059 37.6345 99.0532 37.6345C97.0478 37.6345 95.1205 36.8572 93.6763 35.4658C92.2322 34.0745 91.3835 32.1775 91.3088 30.1735C91.3088 28.1196 92.1248 26.1498 93.5771 24.6975C95.0294 23.2451 96.9992 22.4292 99.0532 22.4292C101.107 22.4292 103.077 23.2451 104.529 24.6975C105.982 26.1498 106.797 28.1196 106.797 30.1735Z" fill="black"/>
</svg>
