<svg width="130" height="86" viewBox="0 0 130 86" fill="none" xmlns="http://www.w3.org/2000/svg">
<g clip-path="url(#clip0_4_54)">
<path d="M93.2996 0C82.6401 0 74.3072 7.99241 66.7641 18.1454C56.3987 5.0065 47.7298 0 37.3557 0C16.2053 0 0 27.4014 0 56.4041C0 74.5531 8.81994 86 23.593 86C34.2258 86 41.8729 81.0097 55.4673 57.3532C55.4673 57.3532 61.1343 47.3908 65.0328 40.5282C66.4942 42.8805 67.933 45.2465 69.3492 47.6261L75.724 58.3021C88.1423 78.9891 95.0612 86 107.598 86C121.991 86 130 74.3966 130 55.8705C130 25.5034 113.429 0 93.2996 0ZM45.1009 50.9477C34.0788 68.1475 30.2659 72.0029 24.1292 72.0029C17.8141 72.0029 14.0606 66.4833 14.0606 56.6414C14.0606 35.5862 24.6058 14.0565 37.177 14.0565C43.9844 14.0565 49.6732 17.9703 58.3873 30.3891C50.113 43.0235 45.1009 50.9477 45.1009 50.9477ZM86.6993 48.7822L79.0773 36.1276C77.0146 32.7881 75.0323 29.714 73.1303 26.9057C80 16.3506 85.6667 11.091 92.4061 11.091C106.407 11.091 117.608 31.6125 117.608 56.8194C117.608 66.4277 114.446 72.0029 107.896 72.0029C101.618 72.0029 98.6195 67.8753 86.6993 48.7822Z" fill="black"/>
</g>
<defs>
<clipPath id="clip0_4_54">
<rect width="130" height="86" fill="white"/>
</clipPath>
</defs>
</svg>
