<svg width="130" height="129" viewBox="0 0 130 129" fill="none" xmlns="http://www.w3.org/2000/svg">
<path d="M129.066 64.5385C129.066 28.8918 100.175 0 64.5332 0C28.8918 0 0 28.8918 0 64.5385C0 96.7433 23.5996 123.441 54.449 128.281V83.1902H38.067V64.5332H54.449V50.3185C54.449 34.1409 64.0868 25.2077 78.8231 25.2077C85.8847 25.2077 93.2689 26.4662 93.2689 26.4662V42.348H85.1371C77.1236 42.348 74.6227 47.3229 74.6227 52.4268V64.5385H92.5214L89.6602 83.1956H74.6227V128.286C105.472 123.446 129.072 96.7486 129.072 64.5385H129.066Z" fill="black"/>
</svg>
