<svg width="130" height="130" viewBox="0 0 130 130" fill="none" xmlns="http://www.w3.org/2000/svg">
<path d="M109.964 109.991H90.8503V80.0406C90.8503 72.8986 90.7051 63.7076 80.8903 63.7076C70.9249 63.7076 69.4029 71.4788 69.4029 79.5135V109.991H50.2896V48.4019H68.65V56.7969H68.8974C71.4627 51.9567 77.7012 46.8477 87.0212 46.8477C106.387 46.8477 109.969 59.5935 109.969 76.1846L109.964 109.991ZM28.7023 39.9746C27.2442 39.9753 25.8003 39.6884 24.4532 39.1305C23.1061 38.5725 21.8823 37.7543 20.8517 36.7228C19.8212 35.6912 19.0042 34.4666 18.4475 33.119C17.8909 31.7713 17.6054 30.3271 17.6075 28.869C17.6086 26.6736 18.2606 24.5278 19.4812 22.703C20.7018 20.8782 22.4361 19.4563 24.4648 18.6171C26.4935 17.778 28.7255 17.5592 30.8785 17.9886C33.0315 18.4179 35.0089 19.4761 36.5605 21.0292C38.1121 22.5824 39.1684 24.5607 39.5956 26.7142C40.0229 28.8676 39.802 31.0993 38.9609 33.1272C38.1197 35.1551 36.6961 36.888 34.8701 38.1069C33.0441 39.3257 30.8977 39.9756 28.7023 39.9746ZM38.2859 109.991H19.1187V48.4019H38.2859V109.991ZM119.526 0H9.52442C4.25937 0 0 4.16256 0 9.29854V119.773C0 124.915 4.25937 129.072 9.52442 129.072H119.51C124.769 129.072 129.072 124.915 129.072 119.773V9.29854C129.072 4.16256 124.769 0 119.51 0H119.526Z" fill="black"/>
</svg>
