<svg width="130" height="149" viewBox="0 0 130 149" fill="none" xmlns="http://www.w3.org/2000/svg">
<path d="M67.7885 0.123804C75.8977 0 83.945 0.0619022 91.9923 0C92.4875 9.47104 95.8921 19.1278 102.825 25.8132C109.758 32.6844 119.539 35.8414 129.072 36.8937V61.8403C120.158 61.5308 111.182 59.6737 103.073 55.8358C99.5443 54.2263 96.2635 52.1836 93.0446 50.0789C92.9827 68.1543 93.1065 86.2298 92.9208 104.243C92.4256 112.91 89.5781 121.514 84.564 128.633C76.4548 140.518 62.403 148.256 47.9798 148.503C39.1278 148.999 30.2758 146.584 22.7237 142.127C10.2194 134.761 1.42933 121.266 0.129386 106.781C0.00558168 103.686 -0.0563205 100.591 0.0674839 97.5579C1.18172 85.7965 7.00053 74.5303 16.0383 66.8544C26.314 57.9405 40.6753 53.6692 54.1081 56.2072C54.2319 65.3687 53.8605 74.5303 53.8605 83.6918C47.7322 81.7109 40.5515 82.268 35.166 85.9822C31.2662 88.5202 28.2949 92.42 26.7473 96.8151C25.4474 99.9721 25.8188 103.439 25.8807 106.781C27.3664 116.933 37.1469 125.476 47.5465 124.547C54.4795 124.485 61.1031 120.462 64.6934 114.581C65.8695 112.538 67.1695 110.434 67.2314 108.019C67.8504 96.9389 67.6028 85.9203 67.6647 74.8398C67.7266 49.8932 67.6028 25.0085 67.7885 0.123804Z" fill="black"/>
</svg>
